<?xml version="1.0" encoding="utf-8"?>
<!-- Generator: Adobe Illustrator 21.0.0, SVG Export Plug-In . SVG Version: 6.00 Build 0)  -->
<svg fill="white" version="1.1" id="Layer_1" xmlns="http://www.w3.org/2000/svg" xmlns:xlink="http://www.w3.org/1999/xlink" x="0px" y="0px"
	 viewBox="0 0 688 688" style="enable-background:new 0 0 688 688;" xml:space="preserve">
<g>
	<path d="M295.2,674.4C201,656,132.6,607.1,86,526.1C64.5,489,56.7,448.3,50,407.3c-2.7-16.8,0.4-35.2,3.9-52
		c5.1-23.9,31.7-34.8,54-23.9c7.4,3.9,14.9,7.8,21.9,12.5c25,16,34.8,15.6,59.8-0.4c5.9-3.9,14.5-5.1,21.9-5.5
		c7.8-0.4,15.6,2,23.1,2.7c31.3,2.7,40.7-2.7,51.6-32.1c3.9-10.2,8.6-16.4,20.7-16.4c37.2,0.4,73.9,0.4,111.1,0.8
		c5.1,0,10.2,3.5,15.3,5.5c-3.5,4.7-6.6,10.6-11.3,13.3c-32.5,18-64.9,34.8-97.4,52.4c-2.3,1.2-5.1,2-6.6,3.9
		c-17.6,23.9-36.8,46.5-50.8,72c-6.6,12.1-7,30.5-3.9,44.6c3.9,18,5.9,33.6-1.2,51.2c-10.6,26.2-7,49.7,12.5,72.3
		C289.8,625.5,302.7,646.2,295.2,674.4z"/>
	<path d="M356.3,677.9c-8.6,0-17.2,1.6-25-0.4c-5.1-1.2-11.3-6.6-13.3-11.7c-5.9-17.2-9.4-35.2-15.3-52.4c-2-6.3-6.6-12.1-11.3-16.8
		c-20.3-19.6-19.6-28.2-10.2-54.8c6.3-18,5.9-39.9,2.3-58.7c-3.5-21.1-1.6-38.7,12.9-54c11.3-11.3,20.3-25,30.9-37.2
		c4.7-5.1,10.2-9.8,16-13.3c46.1-26.6,92.3-52.4,138.4-79.4c22.7-13.3,45.8-7,68.4-3.1c4.3,0.8,9,14.9,8.6,22.7
		c-1.6,42.6,9,54,52,50.8c26.2-1.6,28.2,0,28.2,26.2c0,3.1,0,6.6,0,9.8c-0.8,30.1-3.1,30.9-31.7,21.5c-8.2-2.7-19.6-1.6-27.8,2
		c-16.8,7-32.5,15.6-52,8.2c-6.6-2.3-16.4-0.8-22.7,2.7c-19.2,11-37.2,22.3-61,22.7c-5.5,0-15.3,19.6-14.1,28.9
		c2.3,18-1.6,34-12.5,45.4c-19.9,21.1-24.2,44.6-21.5,71.6c1.2,12.1,0.8,24.6,1.6,37.2c2.3,26.6-0.4,29.7-26.2,31.3
		C366.8,678.3,361.3,677.9,356.3,677.9L356.3,677.9z"/>
	<path d="M411.4,587.9c7.4-13.3,13.7-27.4,22.7-39.5c11.3-15.3,19.9-30.1,17.6-50.1c-2-15.3,5.5-21.5,20.3-20.3c0.8,0,1.6,0.4,2,0
		c29.7-23.5,68.8-9,100.5-25c7-3.5,16.4-5.1,24.6-4.7c22.7,0.8,32.5,13.7,25.4,35.2c-15.3,44.2-37.9,84.9-74.3,114.6
		c-28.9,23.5-61.8,42.6-94.2,61.4c-21.5,12.5-32.1,5.5-35.2-19.6c-2-14.9-3.5-29.7-5.5-44.6c-0.4-2-0.4-3.9-0.4-5.9
		C413.7,589.1,412.6,588.3,411.4,587.9z"/>
	<path d="M331.2,173c0-24.6,0.4-49.3,0-73.9c-0.4-17.2,7.4-24.6,24.2-25.4c46.9-2,50.1,0.8,50.1,47.3c-0.4,42.2-0.8,84.5-0.4,126.7
		c0.4,18.4-7.8,25-25.8,25.4c-46.9,1.2-48.1,0.8-47.7-45.8C331.6,209.4,331.2,191,331.2,173L331.2,173z M343.7,253.6
		c17.6,8.2,32.9,9,49.3-2C371.9,235.2,361.3,235.6,343.7,253.6z M367.6,153.1c6.3-5.5,11-9.4,15.6-13.3c-4.7-4.3-9.8-12.5-13.7-11.7
		c-6.3,0.8-11.3,7.8-16.8,12.1C356.6,143.7,360.9,147.2,367.6,153.1z M346.5,106.5c12.1,0,23.5,0,35.2,0c-0.4-3.9,0.4-10.2-1.6-11.3
		c-11.7-7-23.5-5.5-32.9,4.7C346.9,100.3,346.9,101,346.5,106.5z M343.3,212.5c16.4,8.6,29.7,11.3,45.8-2
		C372.7,200.4,359.8,200.4,343.3,212.5z M350,167.1c16,17.6,25,16.8,37.5,0C373.5,167.1,361.7,167.1,350,167.1z"/>
	<path d="M460.3,145.6c0,32.5,0,64.9,0,97.8c0,12.9,1.6,28.2-17.6,28.5c-21.5,0.8-18.4-16-18.4-29.3c0-52-0.4-104,0-156.4
		c0.4-18.8-3.5-32.1-25.8-32.9c-14.1-0.4-15.3-12.1-12.9-21.5c1.6-6.3,9-11.7,14.1-16.8c1.2-1.2,3.9-0.4,5.9-0.4
		c52.8-2.7,53.6-2,53.6,50.8c0,26.6,0,53.2,0,80.2C459.5,145.6,459.9,145.6,460.3,145.6z"/>
	<path d="M217.8,187.9c0,21.5-0.4,43,0,64.5c0.4,13.3-2.7,21.9-18.8,18.8c-4.3-0.8-9,0.4-13.7,0.8c-14.9,2-22.3-4.3-21.9-19.2
		c0-21.5-0.4-43,0-64.5c0.4-15.3-4.3-25.8-21.5-26.2c-13.7-0.4-15.3-7.8-15.3-19.2c1.2-45,0.8-45.4,46.1-45c46.5,0.4,45-9,44.6,45
		C217.8,157.7,217.8,173,217.8,187.9z M197.9,260.6c14.5-18,12.5-133.4-1.2-145.1C185,129.6,185.4,243.8,197.9,260.6z M186.1,134.3
		c-7-6.6-11.7-10.6-16.4-14.9c-3.5,4.7-9.4,9.8-9.4,14.5c0,4.7,6.6,9,10.6,13.7C174.8,143.7,179.1,140.1,186.1,134.3z M138.8,141.3
		c3.5,0.4,7,0.4,10.6,0.8c0-7.8,0-15.3,0-23.1c-3.1,0-6.3,0-9.4-0.4C140,126.5,139.2,133.9,138.8,141.3z"/>
	<path d="M309.7,9.5c1.6,11.7,3.1,18.8,3.1,25.4c0.4,70.4,0,140.8,0.8,211.2c0.4,18.4-3.9,25.8-25,26.2
		c-50.1,1.2-50.4,2.3-50.4-47.3c0-42.2,0.4-84.9-0.4-127.1c-0.4-18.4,5.1-32.5,19.9-43.8C274.9,41.2,290.2,26.7,309.7,9.5z
		 M243.6,171.8c0,21.9,0,44.2,0,66.1c0,10.2,3.1,17.6,15.3,18c12.9,0.4,15.6-8.2,16-17.6c0.4-43.4,0.4-86.8,0-130.2
		c0-11-4.7-18.8-17.6-18c-12.9,0.8-13.7,9.8-13.7,19.6C243.6,130.4,243.6,151.1,243.6,171.8z M302.7,155.8L302.7,155.8
		c0.4-27.8,0.8-55.9,0-83.7c-0.4-6.3-6.3-12.1-9.8-18c-3.1,5.5-9.4,11-9.4,16.8c-0.8,57.1-0.8,114.2-0.4,171.3
		c0,5.9,5.9,11.3,9,17.2c3.5-5.9,9.8-11.7,9.8-18C303.1,212.9,302.7,184.3,302.7,155.8z"/>
	<path d="M525.6,242.6c-12.9,3.1-31.7,7-31.7,8.2c2.3,18.8,19.2,3.5,27.8,10.2c0.4,0.4,0.8,0.8,5.9,7c-15.6,0.8-27.8,3.1-38.7,0.8
		c-3.9-0.8-7.4-13.7-7.4-21.1c-0.8-32.5-0.8-64.9-0.4-97.8c0-12.1,2.7-23.5,20.3-12.1c-3.1,6.6-5.5,12.9-9.8,22.3
		c15.6,0,28.5,0,44.2,0c-4.3-9.4-7-15.3-9.8-20.7c0.4-1.6,1.2-3.5,1.6-5.1c5.5,2,15.3,3.5,15.6,5.9c1.6,11.3,5.1,26.6-0.8,33.6
		c-15.6,18.8-16,39.1-15.3,60.6C527.2,237.9,526,241,525.6,242.6z M518.9,190.6c0.4-3.9,0.8-7.8,0.8-11.3c-8.2,0-16.8,0-25,0.4
		c-0.4,0-0.8,5.5-1.2,8.2C501.7,188.6,510.3,189.8,518.9,190.6z"/>
	<path d="M167.4,293.1c24.6,0,49.3-0.8,73.9,0.4c6.6,0.4,14.1,4.7,19.6,9.4c2,1.6,0.4,12.1-2,13.7c-6.3,3.1-14.5,5.5-20.7,3.9
		c-24.6-6.6-47.7-12.5-67.7,11.7c-3.5,4.3-18.8,2.7-25.8-1.2c-18.8-10.6-36.4-21.9-59.4-19.2c-4.3,0.4-9-4.7-13.7-7.4
		c4.7-3.5,9.4-9.8,14.1-10.2C113,292.7,140.4,293.1,167.4,293.1L167.4,293.1z"/>
	<path d="M86.4,201.5c5.5,2.7,11,5.1,16,7.8c-2.3,0.8-5.1,2-7.4,2.7c0,18,0,35.6,0,54.4c-13.3,5.5-23.1,4.7-23.1-12.9
		c0-17.6,0-35.2,0-52.8c0-12.5,5.9-19.9,18.4-19.9c47.7,0,49.7-9.4,49.3,44.6c0,10.6,1.2,21.1-0.8,30.9c-1.2,5.1-8.2,8.6-12.9,12.9
		c-1.6-4.7-4.7-9.4-4.7-14.1c0-19.2,1.6-38.3,1.6-57.5c0-2.7-3.9-8.2-6.3-8.2c-9.4,0-18.8,1.2-28.2,2.3
		C88,195.3,87.2,198.4,86.4,201.5z"/>
	<path d="M582.3,268.8c-35.2,0-35.2,0-34.4-36.4c0.8-27,0.8-26.6,27-25.4c3.9,0,7.8,0,11.7,0c32.1,0,36,3.5,33.2,35.6
		C617.5,272.3,619.4,272.3,582.3,268.8z M582.7,268.4c9.8-6.6,16.4-11,23.1-15.6c-7.4-4.7-14.9-12.5-22.7-12.9
		c-6.6-0.4-14.1,7.8-21.1,12.1C568.2,256.7,574.5,261.8,582.7,268.4z M581.5,210.9c-7,5.5-12.5,9.8-18,14.1
		c6.6,3.5,13.7,9.4,20.3,9.4c6.3,0,12.5-6.3,18.8-9.8C596.4,220.7,589.7,216.8,581.5,210.9z"/>
	<path d="M608.1,352.1c-16,0.4-28.5-1.6-28.5-19.9c0.4-19.2,12.5-40.7,22.3-40.7c16-0.4,34.4,23.1,33.2,43.8
		C634.3,354.8,618.3,350.2,608.1,352.1z"/>
</g>
</svg>
