<?xml version="1.0" encoding="utf-8"?>
<!-- Generator: Adobe Illustrator 24.3.0, SVG Export Plug-In . SVG Version: 6.00 Build 0)  -->
<svg version="1.1" id="Layer_1" xmlns="http://www.w3.org/2000/svg" xmlns:xlink="http://www.w3.org/1999/xlink" x="0px" y="0px"
	 viewBox="0 0 2416.88 926.17" style="enable-background:new 0 0 2416.88 926.17;" xml:space="preserve">
<style type="text/css">
	.st0{fill:#FFFFFF;}
</style>
<g>
	<g>
		<path class="st0" d="M1155.21,611.06c-84.59-16.45-145.95-60.39-187.76-133.17c-19.36-33.29-26.32-69.88-32.33-106.65
			c-2.52-15.1,0.39-31.55,3.48-46.65c4.65-21.49,28.45-31.16,48.39-21.49c6.58,3.48,13.36,6.97,19.74,11.23
			c22.45,14.32,31.16,13.94,53.62-0.39c5.23-3.48,12.97-4.65,19.74-5.03c6.97-0.39,13.94,1.74,20.71,2.52
			c28.07,2.52,36.58-2.52,46.26-28.84c3.48-9.1,7.74-14.71,18.58-14.71c33.49,0.39,66.39,0.39,99.68,0.77c4.65,0,9.1,3.1,13.74,5.03
			c-3.1,4.26-6,9.48-10.07,12c-29.23,16.07-58.26,31.16-87.49,47.04c-2.13,1.16-4.65,1.74-6,3.48
			c-15.87,21.49-33.1,41.81-45.68,64.65c-6,10.84-6.19,27.29-3.48,40.07c3.48,16.07,5.23,30.2-1.16,45.87
			c-9.48,23.61-6.19,44.71,11.23,64.84C1150.37,567.32,1161.79,585.9,1155.21,611.06z"/>
		<path class="st0" d="M1209.99,614.35c-7.74,0-15.48,1.36-22.45-0.39c-4.65-1.16-10.06-6-12-10.45
			c-5.23-15.48-8.52-31.55-13.74-47.04c-1.74-5.61-6-10.84-10.07-15.1c-18.19-17.61-17.61-25.36-9.1-49.16
			c5.61-16.07,5.23-35.81,2.13-52.65c-3.1-18.97-1.36-34.65,11.61-48.39c10.06-10.07,18.19-22.45,27.68-33.49
			c4.26-4.65,9.1-8.71,14.32-12c41.42-23.81,82.84-47.04,124.27-71.23c20.32-12,41.04-6.19,61.36-2.71
			c3.87,0.77,8.13,13.36,7.74,20.32c-1.36,38.33,8.13,48.39,46.65,45.68c23.61-1.36,25.36,0,25.36,23.61c0,2.71,0,6,0,8.71
			c-0.77,27.1-2.71,27.68-28.45,19.36c-7.36-2.52-17.61-1.36-24.97,1.74c-15.1,6.19-29.23,13.94-46.65,7.36
			c-6-2.13-14.71-0.77-20.32,2.52c-17.23,9.87-33.49,19.94-54.78,20.32c-5.03,0-13.74,17.61-12.58,25.94
			c2.13,16.07-1.36,30.58-11.23,40.84c-17.81,18.97-21.68,40.07-19.36,64.26c1.16,10.84,0.77,22.07,1.36,33.49
			c2.13,23.81-0.39,26.71-23.61,28.07C1219.47,614.55,1214.44,614.35,1209.99,614.35L1209.99,614.35z"/>
		<path class="st0" d="M1259.54,533.44c6.58-12,12.39-24.58,20.32-35.42c10.06-13.74,17.81-27.1,15.87-44.91
			c-1.74-13.74,5.03-19.36,18.19-18.19c0.77,0,1.36,0.39,1.74,0c26.71-21.1,61.75-8.13,90.2-22.45c6.19-3.1,14.71-4.65,22.07-4.26
			c20.32,0.77,29.23,12.39,22.84,31.55c-13.74,39.68-34.07,76.26-66.78,102.98c-25.94,21.1-55.55,38.33-84.59,55.17
			c-19.36,11.23-28.84,5.03-31.55-17.61c-1.74-13.36-3.1-26.71-5.03-40.07c-0.39-1.74-0.39-3.48-0.39-5.23
			C1261.48,534.61,1260.51,533.83,1259.54,533.44z"/>
		<path class="st0" d="M1187.54,161.03c0-22.07,0.39-44.33,0-66.39c-0.39-15.48,6.58-22.07,21.68-22.84
			c42.2-1.74,44.91,0.77,44.91,42.39c-0.39,37.94-0.77,75.88-0.39,113.81c0.39,16.45-6.97,22.45-23.23,22.84
			c-42.2,1.16-43.16,0.77-42.78-41.04C1187.92,193.74,1187.54,177.1,1187.54,161.03L1187.54,161.03z M1198.76,233.42
			c15.87,7.36,29.61,8.13,44.33-1.74C1223.92,216.78,1214.44,217.16,1198.76,233.42z M1220.25,143.22c5.61-5.03,9.87-8.52,13.94-12
			c-4.26-3.87-8.71-11.23-12.39-10.45c-5.61,0.77-10.07,6.97-15.1,10.84C1210.18,134.71,1214.05,137.8,1220.25,143.22z
			 M1201.28,101.22c10.84,0,21.1,0,31.55,0c-0.39-3.48,0.39-9.1-1.35-10.07c-10.45-6.19-21.1-5.03-29.61,4.26
			C1201.47,95.8,1201.47,96.38,1201.28,101.22z M1198.37,196.45c14.71,7.74,26.71,10.07,41.04-1.74
			C1224.7,185.61,1213.08,185.61,1198.37,196.45z M1204.37,155.61c14.32,15.87,22.45,15.1,33.68,0
			C1225.47,155.61,1214.83,155.61,1204.37,155.61z"/>
		<path class="st0" d="M1303.28,136.45c0,29.23,0,58.26,0,87.88c0,11.61,1.36,25.36-15.87,25.55
			c-19.36,0.77-16.45-14.32-16.45-26.32c0-46.65-0.39-93.3,0-140.33c0.39-16.84-3.1-28.84-23.23-29.61
			c-12.58-0.39-13.74-10.84-11.61-19.36c1.36-5.61,8.13-10.45,12.58-15.1c1.16-1.16,3.48-0.39,5.23-0.39
			c47.42-2.52,48.2-1.74,48.2,45.68c0,23.81,0,47.81,0,72.01C1302.7,136.45,1303.09,136.45,1303.28,136.45z"/>
		<path class="st0" d="M1085.72,174.39c0,19.36-0.39,38.52,0,57.87c0.39,12-2.52,19.74-16.84,16.84c-3.87-0.77-8.13,0.39-12.39,0.77
			c-13.36,1.74-19.94-3.87-19.74-17.23c0-19.36-0.39-38.52,0-57.87c0.39-13.74-3.87-23.23-19.36-23.61
			c-12.39-0.39-13.74-6.97-13.74-17.23c1.16-40.45,0.77-40.84,41.42-40.45c41.81,0.39,40.45-8.13,40.07,40.45
			C1085.72,147.29,1085.72,161.03,1085.72,174.39z M1067.72,239.62c12.97-16.07,11.23-119.81-1.16-130.27
			C1056.3,122.13,1056.49,224.52,1067.72,239.62z M1057.27,126.19c-6.19-6-10.45-9.48-14.71-13.36c-3.1,4.26-8.52,8.71-8.52,12.97
			c0,4.26,6,8.13,9.48,12.39C1047.01,134.71,1050.88,131.42,1057.27,126.19z M1014.68,132.58c3.1,0.39,6.19,0.39,9.48,0.77
			c0-6.97,0-13.74,0-20.71c-2.71,0-5.61,0-8.52-0.39C1015.85,119.22,1015.07,125.8,1014.68,132.58z"/>
		<path class="st0" d="M1168.18,14.12c1.36,10.45,2.71,16.84,2.71,22.84c0.39,63.29,0,126.4,0.77,189.69
			c0.39,16.45-3.48,23.23-22.45,23.61c-44.91,1.16-45.29,2.13-45.29-42.39c0-37.94,0.39-76.26-0.39-114.2
			c-0.39-16.45,4.65-29.23,17.81-39.29C1137.02,42.57,1150.76,29.6,1168.18,14.12z M1108.76,159.87c0,19.74,0,39.68,0,59.42
			c0,9.1,2.71,15.87,13.74,16.07c11.61,0.39,13.94-7.36,14.32-15.87c0.39-38.91,0.39-78.01,0-116.91c0-9.87-4.26-16.84-15.87-16.07
			c-11.61,0.77-12.39,8.71-12.39,17.61C1108.76,122.71,1108.76,141.29,1108.76,159.87z M1161.79,145.55L1161.79,145.55
			c0.39-24.97,0.77-50.13,0-75.1c-0.39-5.61-5.61-10.84-8.71-16.07c-2.71,5.03-8.52,9.87-8.52,15.1
			c-0.77,51.29-0.77,102.59-0.39,153.88c0,5.23,5.23,10.07,8.13,15.48c3.1-5.23,8.71-10.45,8.71-16.07
			C1162.18,196.84,1161.79,171.1,1161.79,145.55z"/>
		<path class="st0" d="M1361.93,223.55c-11.61,2.71-28.45,6.19-28.45,7.36c2.13,16.84,17.23,3.1,24.97,9.1
			c0.39,0.39,0.77,0.77,5.23,6.19c-13.94,0.77-24.97,2.71-34.65,0.77c-3.48-0.77-6.58-12.39-6.58-18.97
			c-0.77-29.23-0.77-58.26-0.39-87.88c0-10.84,2.52-21.1,18.19-10.84c-2.71,6-5.03,11.61-8.71,19.94c13.94,0,25.55,0,39.68,0
			c-3.87-8.52-6.19-13.74-8.71-18.58c0.39-1.36,1.16-3.1,1.36-4.65c5.03,1.74,13.74,3.1,13.94,5.23c1.35,10.07,4.65,23.81-0.77,30.2
			c-13.94,16.84-14.32,35.03-13.74,54.39C1363.48,219.29,1362.32,222,1361.93,223.55z M1355.93,176.71
			c0.39-3.48,0.77-6.97,0.77-10.07c-7.36,0-15.1,0-22.45,0.39c-0.39,0-0.77,5.03-1.16,7.36
			C1340.45,174.97,1348.19,176.13,1355.93,176.71z"/>
		<path class="st0" d="M1040.43,268.85c22.07,0,44.33-0.77,66.39,0.39c6,0.39,12.58,4.26,17.61,8.52
			c1.74,1.36,0.39,10.84-1.74,12.39c-5.61,2.71-12.97,5.03-18.58,3.48c-22.07-6-42.78-11.23-60.78,10.45
			c-3.1,3.87-16.84,2.52-23.23-1.16c-16.84-9.48-32.71-19.74-53.42-17.23c-3.87,0.39-8.13-4.26-12.39-6.58
			c4.26-3.1,8.52-8.71,12.58-9.1C991.65,268.46,1016.23,268.85,1040.43,268.85L1040.43,268.85z"/>
		<path class="st0" d="M967.65,186.58c5.03,2.52,9.87,4.65,14.32,6.97c-2.13,0.77-4.65,1.74-6.58,2.52c0,16.07,0,31.94,0,48.78
			c-12,5.03-20.71,4.26-20.71-11.61s0-31.55,0-47.42c0-11.23,5.23-17.81,16.45-17.81c42.78,0,44.71-8.52,44.33,40.07
			c0,9.48,1.16,18.97-0.77,27.68c-1.16,4.65-7.36,7.74-11.61,11.61c-1.36-4.26-4.26-8.52-4.26-12.58c0-17.23,1.36-34.45,1.36-51.68
			c0-2.52-3.48-7.36-5.61-7.36c-8.52,0-16.84,1.16-25.36,2.13C969.2,180.97,968.42,183.87,967.65,186.58z"/>
		<path class="st0" d="M1412.84,246.97c-31.55,0-31.55,0-30.97-32.71c0.77-24.2,0.77-23.81,24.2-22.84c3.48,0,6.97,0,10.45,0
			c28.84,0,32.33,3.1,29.81,31.94C1444.59,250.07,1446.13,250.07,1412.84,246.97z M1413.23,246.59c8.71-6,14.71-9.87,20.71-13.94
			c-6.58-4.26-13.36-11.23-20.32-11.61c-6-0.39-12.58,6.97-18.97,10.84C1400.26,236.13,1405.87,240.78,1413.23,246.59z
			 M1412.26,195.1c-6.19,5.03-11.23,8.71-16.07,12.58c6,3.1,12.39,8.52,18.19,8.52c5.61,0,11.23-5.61,16.84-8.71
			C1425.62,203.81,1419.62,200.32,1412.26,195.1z"/>
		<path class="st0" d="M1436.07,321.69c-14.32,0.39-25.55-1.36-25.55-17.81c0.39-17.23,11.23-36.58,19.94-36.58
			c14.32-0.39,30.97,20.71,29.81,39.29C1459.49,324.2,1445.17,320.14,1436.07,321.69z"/>
	</g>
	<g>
		<g>
			<path class="st0" d="M203.47,834.63c-1.16-23.61-2.52-51.87-2.32-76.84h-0.77c-6.58,22.45-14.9,47.04-23.61,70.07l-29.42,78.97
				h-28.07l-26.52-78.01c-7.74-23.42-14.9-48.2-20.32-71.23h-0.58c-0.77,23.81-2.13,53.04-3.68,77.81l-4.45,73.36H29.65L43,726.23
				h48l26.13,73.36c7.16,21.49,13.55,43.16,18.39,63.68h0.97c5.42-19.94,12.19-42.2,19.94-63.68l27.68-73.17h47.42l11.42,182.53
				h-35.62L203.47,834.63z"/>
			<path class="st0" d="M271.79,909.15v-20.13l22.84-19.36c45.29-38.33,66.78-59.42,66.97-82.65c0-15.87-9.29-29.61-34.45-29.61
				c-17.03,0-31.55,7.94-41.23,14.71l-10.65-23.61c13.94-10.07,35.03-18,59.23-18c42.78,0,63.68,24.58,63.68,53.23
				c0,30.97-24.39,55.75-58.07,84.2l-16.65,13.36v0.58h78.97v27.49H271.79V909.15z"/>
			<path class="st0" d="M644.01,903.73c-8.71,3.87-27.68,8.32-51.87,8.32c-63.49,0-102.2-36.39-102.2-91.94
				c0-60,45.87-96.2,107.04-96.2c24,0,41.04,4.45,48.39,8.13l-7.94,26.52c-9.29-3.87-22.65-7.16-39.1-7.16
				c-40.84,0-70.07,23.23-70.07,67.17c0,40.26,25.74,65.81,69.68,65.81c14.71,0,30.2-2.71,39.87-6.58L644.01,903.73z"/>
			<path class="st0" d="M852.48,816.05c0,61.17-40.65,96.01-95.81,96.01c-56.52,0-92.33-39.49-92.33-92.91
				c0-56.13,38.91-95.62,95.23-95.62C818.22,723.52,852.48,763.78,852.48,816.05z M703.05,818.56c0,37.16,20.71,66.78,55.55,66.78
				c35.23,0,55.36-30,55.36-68.13c0-34.45-18.78-66.97-55.17-66.97C722.6,750.23,703.05,781.01,703.05,818.56z"/>
			<path class="st0" d="M883.84,728.94c13.94-2.32,34.26-3.87,55.36-3.87c28.65,0,48.2,4.45,61.75,14.71
				c11.03,8.32,17.23,20.9,17.23,36.58c0,23.42-17.42,39.49-36.39,45.68v0.77c14.52,5.03,23.03,17.61,27.87,35.42
				c6.39,22.84,11.81,43.75,15.87,50.91h-37.55c-3.1-5.23-7.94-20.32-13.55-42.97c-5.81-23.81-15.29-31.55-36-31.94h-18.39v75.1
				h-36.2V728.94z M920.23,809.66h21.68c24.78,0,40.07-12,40.07-30c0-19.94-15.29-29.23-38.91-29.23c-11.61,0-18.97,0.77-22.65,1.74
				v57.49H920.23z"/>
			<path class="st0" d="M1052.82,728.94c13.36-2.13,31.36-3.68,55.94-3.68c26.71,0,46.07,5.03,58.84,14.9
				c12,8.9,19.55,23.23,19.55,40.45c0,17.23-6,31.55-17.03,41.42c-14.71,13.36-37.36,19.74-63.29,19.74
				c-6.77,0-12.97-0.39-17.81-1.36v68.91h-36.2L1052.82,728.94L1052.82,728.94z M1089.01,813.92c4.65,1.16,10.45,1.55,18,1.55
				c27.29,0,43.94-12.39,43.94-33.87c0-20.13-15.48-30.97-40.65-30.97c-10.07,0-17.23,0.77-21.1,1.55v61.75H1089.01z"/>
			<path class="st0" d="M1396.19,816.05c0,61.17-40.65,96.01-95.81,96.01c-56.52,0-92.33-39.49-92.33-92.91
				c0-56.13,38.91-95.62,95.23-95.62C1361.93,723.52,1396.19,763.78,1396.19,816.05z M1246.77,818.56
				c0,37.16,20.71,66.78,55.55,66.78c35.23,0,55.36-30,55.36-68.13c0-34.45-18.78-66.97-55.17-66.97
				C1266.31,750.23,1246.77,781.01,1246.77,818.56z"/>
			<path class="st0" d="M1427.55,728.94c13.94-2.32,34.26-3.87,55.36-3.87c28.65,0,48.2,4.45,61.75,14.71
				c11.03,8.32,17.23,20.9,17.23,36.58c0,23.42-17.42,39.49-36.39,45.68v0.77c14.52,5.03,23.03,17.61,27.87,35.42
				c6.39,22.84,11.81,43.75,15.87,50.91h-37.55c-3.1-5.23-7.94-20.32-13.55-42.97c-5.81-23.81-15.29-31.55-36-31.94h-18.39v75.1
				h-36.2V728.94z M1463.94,809.66h21.68c24.78,0,40.07-12,40.07-30c0-19.94-15.29-29.23-38.91-29.23
				c-11.61,0-18.97,0.77-22.65,1.74v57.49H1463.94z"/>
			<path class="st0" d="M1636.6,857.47l-17.03,51.68h-37.74l64.26-182.53h46.45l65.04,182.53h-39.29l-18.19-51.68H1636.6z
				 M1694.09,832.3l-15.68-44.91c-3.87-11.23-7.16-23.81-10.26-34.26h-0.58c-2.9,10.65-6,23.42-9.48,34.26l-15.48,45.1h51.49V832.3z
				"/>
			<path class="st0" d="M1823.58,754.49h-57.1v-28.07h151.37v28.07h-57.68v154.46h-36.58L1823.58,754.49L1823.58,754.49z"/>
			<path class="st0" d="M1977.65,726.62v182.53h-36.58V726.62H1977.65z"/>
			<path class="st0" d="M2196.96,816.05c0,61.17-40.65,96.01-95.81,96.01c-56.52,0-92.33-39.49-92.33-92.91
				c0-56.13,38.71-95.62,95.23-95.62C2162.51,723.52,2196.96,763.78,2196.96,816.05z M2047.53,818.56
				c0,37.16,20.71,66.78,55.55,66.78c35.23,0,55.36-30,55.36-68.13c0-34.45-18.78-66.97-55.17-66.97
				C2067.08,750.23,2047.53,781.01,2047.53,818.56z"/>
			<path class="st0" d="M2228.32,909.15V726.62h41.81l51.68,78.39c13.16,20.13,24.78,41.42,34.07,61.17l0.77-0.19
				c-2.52-24.2-3.29-47.81-3.29-75.68v-63.68h33.87v182.53h-37.94l-52.26-80.33c-12.78-20.13-26.13-42.2-35.81-62.91l-0.97,0.19
				c1.55,23.61,1.94,47.81,1.94,77.81v65.23L2228.32,909.15L2228.32,909.15z"/>
		</g>
	</g>
</g>
</svg>
